<?xml version="1.0" encoding="UTF-8" standalone="no"?>
<!DOCTYPE svg PUBLIC "-//W3C//DTD SVG 1.1//EN" "http://www.w3.org/Graphics/SVG/1.1/DTD/svg11.dtd">
<svg width="100%" height="100%" viewBox="0 0 314 352" version="1.1" xmlns="http://www.w3.org/2000/svg" xmlns:xlink="http://www.w3.org/1999/xlink" xml:space="preserve" xmlns:serif="http://www.serif.com/" style="fill-rule:evenodd;clip-rule:evenodd;stroke-linejoin:round;stroke-miterlimit:2;">
    <g transform="matrix(1,0,0,1,-1483.08787,-528.702826)">
        <g transform="matrix(0.516507,0,0,0.516507,1465,450.000045)">
            <g>
                <g>
                    <g transform="matrix(1,0,0,1,3.050923,831.984451)">
                        <g>
                            <path d="M388.344,-679.609C428.531,-679.609 462.977,-669.297 491.688,-648.672C520.395,-628.055 539.188,-602.352 548.062,-571.562C550.156,-563.727 551.203,-555.895 551.203,-548.062C551.203,-530.32 545.328,-516.359 533.578,-506.172C521.836,-495.992 508.922,-490.906 494.828,-490.906C484.391,-490.906 474.473,-493.773 465.078,-499.516C455.68,-505.266 448.375,-514.141 443.156,-526.141C436.363,-539.711 428.531,-550.539 419.656,-558.625C410.789,-566.719 400.352,-571.031 388.344,-571.562C382.602,-572.082 375.035,-570.645 365.641,-567.25C356.242,-563.852 348.02,-558.5 340.969,-551.188C333.926,-543.883 330.406,-534.492 330.406,-523.016C330.406,-508.398 335.625,-492.738 346.062,-476.031C356.5,-459.332 369.023,-442.891 383.641,-426.703L393.047,-416.531C409.223,-398.781 425.008,-379.859 440.406,-359.766C455.812,-339.672 468.734,-318.008 479.172,-294.781C489.609,-271.551 494.828,-246.367 494.828,-219.234C494.828,-188.953 488.301,-160.629 475.25,-134.266C462.195,-107.91 444.578,-84.688 422.391,-64.594C400.211,-44.5 374.77,-28.707 346.062,-17.219C317.352,-5.738 287.344,0 256.031,0C226.27,0 197.816,-4.828 170.672,-14.484C143.535,-24.141 119.395,-37.973 98.25,-55.984C77.113,-73.992 60.539,-95.523 48.531,-120.578C36.531,-145.629 31.051,-173.816 32.094,-205.141C32.094,-227.055 38.75,-243.625 52.062,-254.844C65.375,-266.07 79.859,-271.688 95.516,-271.688C110.648,-271.688 124.484,-266.461 137.016,-256.016C149.547,-245.578 155.812,-229.141 155.812,-206.703L155.812,-201.609C155.812,-199.785 155.551,-197.828 155.031,-195.734C154.5,-168.066 164.02,-146.406 183.594,-130.75C203.176,-115.094 227.062,-107.004 255.25,-106.484C272.469,-106.484 289.164,-110.523 305.344,-118.609C321.531,-126.703 334.973,-138.445 345.672,-153.844C356.367,-169.25 361.719,-187.391 361.719,-208.266C361.719,-231.754 354.41,-253.414 339.797,-273.25C325.18,-293.082 308.738,-314.223 290.469,-336.672C275.852,-354.941 261.5,-373.078 247.406,-391.078C233.312,-409.086 221.695,-428.008 212.562,-447.844C203.438,-467.676 198.875,-488.816 198.875,-511.266C198.875,-518.578 199.656,-526.016 201.219,-533.578C202.781,-541.148 204.609,-548.848 206.703,-556.672C215.578,-583.297 229.406,-605.742 248.188,-624.016C266.977,-642.285 288.641,-656.117 313.172,-665.516C337.711,-674.91 362.77,-679.609 388.344,-679.609Z" style="fill:rgb(16,16,16);fill-rule:nonzero;"/>
                        </g>
                    </g>
                </g>
                <g>
                    <g transform="matrix(1,0,0,1,410.202183,831.984451)">
                        <g>
                            <path d="M167.547,-128.406C185.297,-128.406 200.43,-122.27 212.953,-110C225.484,-97.738 231.75,-82.473 231.75,-64.203C231.75,-46.453 225.484,-31.312 212.953,-18.781C200.43,-6.258 185.297,0 167.547,0C149.805,0 134.672,-6.258 122.141,-18.781C109.609,-31.312 103.344,-46.453 103.344,-64.203C103.344,-82.473 109.609,-97.738 122.141,-110C134.672,-122.27 149.805,-128.406 167.547,-128.406Z" style="fill:rgb(199,238,97);fill-rule:nonzero;"/>
                        </g>
                    </g>
                </g>
            </g>
        </g>
    </g>
</svg>
